<svg width="41" height="28" viewBox="0 0 41 28" fill="none" xmlns="http://www.w3.org/2000/svg">
    <path d="M0 4.14076H11.5969L13.0076 1.91973L18.5048 1.51072L24.8511 2.36306L32.7361 0L30.773 3.50364L27.4992 6.20687L26.0108 6.83963L27.5817 6.71487L32.5215 8.3547L38.6898 14.1615L34.882 14.6994L40.5479 19.9292L35.2245 19.9379L41 26.812L32.9141 23.5794L32.5124 28L27.2025 23.4631L24.9424 27.1865L20.8655 22.4858L19.3495 25.1892L12.1584 17.2949L11.8481 18.2161L8.55617 17.0885L8.21364 17.9795L5.99475 16.9119L5.1683 16.856L3.20967 15.0783L4.77569 13.7481L5.01302 12.1253L5.53818 12.8914L10.7157 13.5588L13.8067 14.1827L11.1176 11.7681L8.49221 10.7782L4.89898 10.0634L4.38307 11.6046L3.19599 9.69778L1.49763 9.08228L0.776171 6.72776L0 4.14076Z" fill="#DBDBDB"/>
</svg>
